<?xml version="1.0" standalone="no"?>
<!DOCTYPE svg PUBLIC "-//W3C//DTD SVG 20010904//EN"
 "http://www.w3.org/TR/2001/REC-SVG-20010904/DTD/svg10.dtd">
<svg version="1.0" xmlns="http://www.w3.org/2000/svg"
 width="500.000000pt" height="500.000000pt" viewBox="0 0 500.000000 500.000000"
 preserveAspectRatio="xMidYMid meet">
<metadata>
Created by potrace 1.14, written by Peter Selinger 2001-2017
</metadata>
<g transform="translate(0.000000,500.000000) scale(0.100000,-0.100000)"
fill="#000000" stroke="none">
<path d="M1902 4211 c-29 -15 -112 -24 -112 -12 0 9 -99 7 -128 -3 -13 -4 -33
-17 -44 -28 -16 -16 -27 -18 -66 -13 -135 19 -137 19 -186 -47 -15 -21 -35
-38 -44 -38 -16 0 -42 -22 -94 -77 -9 -10 -34 -33 -56 -52 -32 -26 -43 -45
-53 -85 -7 -28 -11 -62 -10 -76 1 -14 4 -34 5 -45 1 -11 -2 -26 -8 -34 -28
-37 -36 -92 -23 -163 3 -14 3 -29 -1 -32 -16 -17 -27 -116 -12 -116 6 0 8 -4
5 -10 -3 -5 -2 -10 3 -10 6 0 10 -28 11 -62 1 -81 6 -102 32 -152 17 -32 22
-62 25 -136 1 -52 5 -111 8 -130 12 -86 17 -118 22 -155 3 -22 10 -62 16 -88
11 -50 3 -72 -25 -72 -22 0 -15 -59 11 -87 32 -35 39 -98 12 -105 -25 -7 -48
-58 -45 -97 7 -65 41 -196 56 -210 5 -6 9 -16 9 -23 0 -7 8 -32 19 -56 10 -23
29 -69 42 -101 28 -73 74 -122 109 -118 22 3 27 -3 39 -45 19 -63 69 -156 126
-232 30 -41 167 -172 210 -201 28 -18 52 -37 55 -40 3 -4 21 -15 40 -25 19 -9
42 -23 50 -30 8 -7 53 -32 100 -56 47 -24 87 -47 88 -51 2 -5 11 -8 21 -8 9 0
21 -4 26 -8 11 -9 68 -29 105 -36 14 -3 36 -8 50 -11 31 -7 228 -7 239 0 5 2
26 7 47 11 103 15 268 94 339 162 8 6 16 12 20 12 3 0 19 13 35 30 16 17 35
30 41 30 7 0 10 2 8 5 -3 2 25 35 61 73 61 63 145 164 196 238 41 57 84 153
120 266 44 137 92 258 108 276 7 7 26 14 42 16 16 1 35 5 42 9 6 5 12 5 12 1
0 -14 43 41 55 71 30 69 47 297 30 398 -3 15 -7 38 -9 51 -5 31 -23 65 -49 94
-24 26 -78 30 -101 7 -18 -18 -36 -19 -37 -2 0 6 -2 21 -5 32 -5 24 -12 75
-18 130 -5 45 -16 117 -23 155 -2 14 -6 39 -8 55 -2 17 -6 44 -9 60 -3 17 -8
50 -11 75 -4 24 -9 48 -12 52 -5 9 -15 56 -16 76 0 6 -4 12 -9 12 -5 0 -7 4
-3 10 3 5 -1 25 -9 44 -8 19 -12 37 -8 40 3 3 0 6 -6 6 -7 0 -12 3 -11 8 2 15
-14 52 -22 52 -5 0 -9 4 -9 10 0 5 -8 19 -17 31 -27 32 -38 42 -106 93 -21 16
-35 31 -33 34 3 2 1 13 -5 24 -6 11 -12 32 -14 47 -6 45 -9 54 -27 75 -10 11
-18 24 -18 30 0 5 -2 7 -5 4 -6 -5 -32 14 -76 55 -10 9 -21 17 -24 17 -2 0
-30 12 -61 26 -54 25 -125 46 -189 58 -50 8 -71 14 -121 31 -27 9 -57 18 -67
20 -9 2 -23 7 -30 12 -6 4 -19 8 -27 9 -15 2 -95 20 -155 33 -16 4 -70 7 -120
6 -49 -1 -101 3 -115 8 -40 15 -168 14 -198 -2z"/>
</g>
</svg>
